<?xml version="1.0" encoding="UTF-8"?>
<svg id="Capa_1" data-name="Capa 1" xmlns="http://www.w3.org/2000/svg" xmlns:xlink="http://www.w3.org/1999/xlink" viewBox="0 0 750 752.27">
  <defs>
    <style>
      .cls-1 {
        fill: #fff;
      }

      .cls-2 {
        fill: url(#Degradado_sin_nombre_61);
      }

      .cls-3 {
        fill: url(#Degradado_sin_nombre_60);
      }
    </style>
    <radialGradient id="Degradado_sin_nombre_61" data-name="Degradado sin nombre 61" cx="-661.25" cy="382.85" fx="-661.25" fy="382.85" r="107.69" gradientTransform="translate(3123.15 -1448.75) scale(3.97)" gradientUnits="userSpaceOnUse">
      <stop offset="0" stop-color="#27669a"/>
      <stop offset=".64" stop-color="#133c63"/>
    </radialGradient>
    <radialGradient id="Degradado_sin_nombre_60" data-name="Degradado sin nombre 60" cx="-697.63" cy="429.7" fx="-697.63" fy="429.7" r="55.99" gradientTransform="translate(3123.15 -1448.75) scale(3.97)" gradientUnits="userSpaceOnUse">
      <stop offset="0" stop-color="#337eb8"/>
      <stop offset="1" stop-color="#2b6597"/>
    </radialGradient>
  </defs>
  <g>
    <path class="cls-2" d="M375.03,0c-82.05,0-154.03,43.08-194.5,107.91,11.86-7.81,25.44-12.28,39.63-12.28,16.62,0,30.99,4.29,45.17,13.59.66.42,1.31.83,1.97,1.31,28.42-25.8,66.2-41.59,107.74-41.59,88.43,0,160.11,71.68,160.11,160.11,0,46-19.43,87.53-50.53,116.73,30.63-2.86,74.19-12.63,99.69-23.48,12.69-28.48,19.78-60.06,19.78-93.26C604.09,102.55,501.54,0,375.03,0ZM432.95,387.14c-3.81-1.43-7.63-3.04-11.32-4.83-14.72,4.53-30.39,6.91-46.6,6.91-88.49,0-160.17-71.74-160.17-160.17,0-26.28,6.32-51.07,17.58-72.94-8.34-3.63-16.21-6.97-17.58-6.97-22.11,0-49.22,22.64-65.07,37.96-2.56,13.59-3.87,27.65-3.87,41.95,0,126.51,102.55,229.12,229.12,229.12,66.32,0,126.09-28.19,167.86-73.29-16.03,8.16-34.74,12.04-56.55,12.04-18.35,0-36.35-3.28-53.39-9.77Z"/>
    <path class="cls-3" d="M592.29,301.69c-4.65,14.06-10.67,27.53-17.88,40.28,0,.06-.06.12-.12.18-17.34,25.27-42.66,43.8-87.95,43.8-17.76,0-34.14-3.22-49.52-9.06-41.71-15.79-76.45-50.71-113.81-92.42-50.05-55.83-68.35-97.01-100.47-104.46-3.46-.77-7.03-1.19-10.85-1.19-39.45,0-65.19,33.91-65.19,33.91,1.25-17.7,4.47-34.86,9.53-51.25.06-.18.12-.36.18-.54.83-3.16,1.85-6.26,3.1-9.24,10.31-25.68,33.73-45.11,60.84-45.11,13.47,0,25.74,3.04,39.15,11.8,17.04,11.08,35.99,31.22,61.49,65.67,45.7,61.55,107.56,144.62,173.46,144.62,2.09,0,4.11,0,6.14-.06,39.98-.89,70.02-10.31,91.88-26.93Z"/>
  </g>
  <g>
    <g>
      <path class="cls-1" d="M0,521.78h22.42l73.75,95.19v-95.19h23.8v137.67h-20.26l-75.91-97.94v97.94H0v-137.67Z"/>
      <path class="cls-1" d="M157.11,591.01v-.4c0-38.55,29.89-71.19,72.18-71.19s71.78,32.06,71.78,70.8v.39c0,38.55-29.9,71.2-72.18,71.2s-71.78-32.06-71.78-70.8ZM275.71,591.01v-.4c0-26.74-19.27-48.77-46.81-48.77s-46.41,21.63-46.41,48.38v.39c0,26.75,19.27,48.78,46.81,48.78s46.41-21.64,46.41-48.38Z"/>
      <path class="cls-1" d="M338.22,521.78h51.33c43.27,0,73.16,29.7,73.16,68.44v.39c0,38.74-29.89,68.83-73.16,68.83h-51.33v-137.67ZM362.41,543.81v93.61h27.14c28.91,0,47.79-19.47,47.79-46.41v-.4c0-26.94-18.88-46.8-47.79-46.8h-27.14Z"/>
      <path class="cls-1" d="M539,520.79h22.42l60.57,138.65h-25.56l-13.97-33.23h-65.1l-14.16,33.23h-24.78l60.57-138.65ZM573.61,604.77l-23.79-55.07-23.6,55.07h47.4Z"/>
      <path class="cls-1" d="M653.43,521.78h24.19v115.64h72.38v22.03h-96.57v-137.67Z"/>
    </g>
    <g>
      <g>
        <path class="cls-1" d="M50.53,699.7h38.32v8.13h-29.24v13.44h25.92v8.19h-25.92v13.81h29.61v8.12h-38.69v-51.69Z"/>
        <path class="cls-1" d="M103.69,699.7h8.42l27.69,35.74v-35.74h8.93v51.69h-7.6l-28.5-36.77v36.77h-8.94v-51.69Z"/>
        <path class="cls-1" d="M165.71,699.7h38.32v8.13h-29.24v13.44h25.92v8.19h-25.92v13.81h29.61v8.12h-38.69v-51.69Z"/>
        <path class="cls-1" d="M218.86,699.7h23.04c6.5,0,11.59,1.92,14.92,5.17,2.73,2.88,4.28,6.64,4.28,11.15v.14c0,8.49-5.09,13.59-12.26,15.65l13.95,19.57h-10.78l-12.7-18.01h-11.37v18.01h-9.08v-51.69ZM241.24,725.32c6.5,0,10.63-3.32,10.63-8.64v-.14c0-5.61-3.92-8.57-10.71-8.57h-13.22v17.35h13.29Z"/>
        <path class="cls-1" d="M273.65,725.69v-.14c0-14.47,11-26.73,26.66-26.73,8.93,0,14.55,2.51,19.86,7.01l-5.76,6.87c-3.99-3.39-7.98-5.46-14.47-5.46-9.45,0-16.76,8.27-16.76,18.16v.15c0,10.63,7.02,18.46,17.57,18.46,4.95,0,9.3-1.55,12.48-3.92v-9.6h-13.22v-7.98h22v21.71c-5.17,4.35-12.4,8.05-21.56,8.05-16.17,0-26.8-11.52-26.8-26.58Z"/>
        <path class="cls-1" d="M350.51,731.01l-20.53-31.31h10.78l14.4,22.82,14.62-22.82h10.41l-20.53,31.09v20.6h-9.15v-20.38Z"/>
        <path class="cls-1" d="M415.41,725.69v-.14c0-14.47,11-26.73,26.65-26.73,8.94,0,14.55,2.51,19.86,7.01l-5.76,6.87c-3.99-3.39-7.98-5.46-14.47-5.46-9.45,0-16.76,8.27-16.76,18.16v.15c0,10.63,7.01,18.46,17.57,18.46,4.95,0,9.3-1.55,12.48-3.92v-9.6h-13.22v-7.98h22v21.71c-5.17,4.35-12.4,8.05-21.56,8.05-16.17,0-26.8-11.52-26.8-26.58Z"/>
        <path class="cls-1" d="M479.27,699.7h23.03c6.5,0,11.59,1.92,14.92,5.17,2.73,2.88,4.28,6.64,4.28,11.15v.14c0,8.49-5.1,13.59-12.26,15.65l13.95,19.57h-10.78l-12.7-18.01h-11.37v18.01h-9.08v-51.69ZM501.64,725.32c6.49,0,10.63-3.32,10.63-8.64v-.14c0-5.61-3.92-8.57-10.71-8.57h-13.22v17.35h13.29Z"/>
        <path class="cls-1" d="M534.05,725.69v-.14c0-14.47,11.23-26.73,27.1-26.73s26.95,12.04,26.95,26.58v.15c0,14.47-11.23,26.73-27.1,26.73s-26.95-12.04-26.95-26.58ZM578.57,725.69v-.14c0-10.04-7.24-18.31-17.58-18.31s-17.42,8.13-17.42,18.16v.15c0,10.04,7.23,18.31,17.57,18.31s17.43-8.12,17.43-18.16Z"/>
        <path class="cls-1" d="M601.97,729.46v-29.76h9.08v29.39c0,9.67,4.88,14.69,13.07,14.69s12.99-4.8,12.99-14.33v-29.76h9.08v29.32c0,15.43-8.71,23.18-22.22,23.18s-22.01-7.75-22.01-22.75Z"/>
        <path class="cls-1" d="M662.37,699.7h20.38c12.11,0,19.64,6.87,19.64,17.28v.14c0,11.52-9.23,17.65-20.68,17.65h-10.26v16.61h-9.08v-51.69ZM682.01,726.58c6.87,0,11.15-3.84,11.15-9.23v-.14c0-6.13-4.36-9.23-11.15-9.23h-10.56v18.61h10.56Z"/>
      </g>
      <rect class="cls-1" y="723.18" width="36.6" height="4.26"/>
      <rect class="cls-1" x="711.82" y="723.18" width="36.6" height="4.26"/>
    </g>
  </g>
</svg>