<?xml version="1.0" encoding="UTF-8"?>
<svg id="CENTRALIZER" xmlns="http://www.w3.org/2000/svg" xmlns:xlink="http://www.w3.org/1999/xlink" viewBox="0 0 516 777">
  <defs>
    <style>
      .cls-1 {
        stroke: url(#Degradado_sin_nombre_13);
      }

      .cls-1, .cls-2, .cls-3, .cls-4, .cls-5 {
        fill: none;
        stroke-miterlimit: 10;
        stroke-width: 5px;
      }

      .cls-6 {
        fill: url(#Degradado_sin_nombre_13-7);
      }

      .cls-2 {
        stroke: url(#Degradado_sin_nombre_13-3);
      }

      .cls-3 {
        stroke: url(#Degradado_sin_nombre_13-4);
      }

      .cls-7 {
        fill: url(#Degradado_sin_nombre_13-6);
      }

      .cls-4 {
        stroke: url(#Degradado_sin_nombre_13-2);
      }

      .cls-5 {
        stroke: url(#Degradado_sin_nombre_13-5);
      }
    </style>
    <linearGradient id="Degradado_sin_nombre_13" data-name="Degradado sin nombre 13" x1="267.07" y1="344.72" x2="279.03" y2="344.72" gradientUnits="userSpaceOnUse">
      <stop offset="0" stop-color="#3279b1"/>
      <stop offset=".51" stop-color="#153e67"/>
      <stop offset=".69" stop-color="#1e517f"/>
      <stop offset=".99" stop-color="#3279b1"/>
    </linearGradient>
    <linearGradient id="Degradado_sin_nombre_13-2" data-name="Degradado sin nombre 13" x1="242.93" y1="346.12" x2="259.92" y2="346.12" xlink:href="#Degradado_sin_nombre_13"/>
    <linearGradient id="Degradado_sin_nombre_13-3" data-name="Degradado sin nombre 13" x1="231.72" y1="346.87" x2="254.36" y2="346.87" xlink:href="#Degradado_sin_nombre_13"/>
    <linearGradient id="Degradado_sin_nombre_13-4" data-name="Degradado sin nombre 13" x1="256.68" y1="346.42" x2="266.46" y2="346.42" xlink:href="#Degradado_sin_nombre_13"/>
    <linearGradient id="Degradado_sin_nombre_13-5" data-name="Degradado sin nombre 13" x1="273.24" y1="345.93" x2="296.84" y2="345.93" xlink:href="#Degradado_sin_nombre_13"/>
    <linearGradient id="Degradado_sin_nombre_13-6" data-name="Degradado sin nombre 13" x1="243.51" y1="298.17" x2="286.03" y2="298.17" xlink:href="#Degradado_sin_nombre_13"/>
    <linearGradient id="Degradado_sin_nombre_13-7" data-name="Degradado sin nombre 13" x1="264.95" y1="638.64" x2="307.47" y2="638.64" gradientTransform="translate(-21.45 -243.38)" xlink:href="#Degradado_sin_nombre_13"/>
  </defs>
  <g>
    <path class="cls-1" d="M269.46,299.88c8.93,29.05,9.45,60.19,1.34,89.76"/>
    <path class="cls-4" d="M257.7,301.12c-16.36,31.38-16.36,58.62,0,90.01"/>
    <path class="cls-2" d="M252.57,302.32c-24.47,25.03-24.47,64.07,0,89.11"/>
    <path class="cls-3" d="M264,298.29c-6.43,36.37-6.43,59.88,0,96.25"/>
    <path class="cls-5" d="M275.93,300.04c25.16,23.77,24.26,69.26-1.03,91.72"/>
  </g>
  <path class="cls-7" d="M249.1,289.06h31.33c3.09,0,5.59,2.51,5.59,5.59v12.63h-42.52v-12.63c0-3.09,2.51-5.59,5.59-5.59Z"/>
  <path class="cls-6" d="M248.95,386.14h31.63c3.01,0,5.45,2.44,5.45,5.45v12.78h-42.52v-12.78c0-3.01,2.44-5.45,5.45-5.45Z" transform="translate(529.53 790.51) rotate(180)"/>
</svg>