<?xml version="1.0" encoding="UTF-8"?>
<svg id="GAS_LIFT_MANDREL" data-name="GAS LIFT MANDREL" xmlns="http://www.w3.org/2000/svg" xmlns:xlink="http://www.w3.org/1999/xlink" viewBox="0 0 516 777">
  <defs>
    <style>
      .cls-1 {
        fill: url(#Degradado_sin_nombre_1372-2);
      }

      .cls-2 {
        fill: url(#Degradado_sin_nombre_1372-3);
      }

      .cls-3 {
        fill: url(#Degradado_sin_nombre_1372-4);
      }

      .cls-4 {
        fill: url(#Degradado_sin_nombre_1374);
      }

      .cls-5 {
        fill: url(#Degradado_sin_nombre_13);
      }

      .cls-6 {
        fill: url(#Degradado_sin_nombre_1389);
      }

      .cls-7 {
        fill: url(#Degradado_sin_nombre_1372-5);
      }

      .cls-8 {
        fill: url(#Degradado_sin_nombre_1372-6);
      }

      .cls-9 {
        fill: url(#Degradado_sin_nombre_1372);
      }
    </style>
    <linearGradient id="Degradado_sin_nombre_1374" data-name="Degradado sin nombre 1374" x1="250.66" y1="472.88" x2="265.43" y2="472.88" gradientUnits="userSpaceOnUse">
      <stop offset="0" stop-color="#3279b1"/>
      <stop offset=".2" stop-color="#1e496b"/>
      <stop offset=".51" stop-color="#000"/>
      <stop offset=".59" stop-color="#061018"/>
      <stop offset=".77" stop-color="#183c58"/>
      <stop offset=".99" stop-color="#3279b1"/>
    </linearGradient>
    <linearGradient id="Degradado_sin_nombre_1372" data-name="Degradado sin nombre 1372" x1="260.75" y1="516.41" x2="275.24" y2="516.41" gradientUnits="userSpaceOnUse">
      <stop offset="0" stop-color="#3279b1"/>
      <stop offset=".24" stop-color="#94b9d6"/>
      <stop offset=".51" stop-color="#fff"/>
      <stop offset=".58" stop-color="#e6eef5"/>
      <stop offset=".74" stop-color="#a6c5dd"/>
      <stop offset=".96" stop-color="#4183b6"/>
      <stop offset=".99" stop-color="#3279b1"/>
    </linearGradient>
    <linearGradient id="Degradado_sin_nombre_1372-2" data-name="Degradado sin nombre 1372" x1="261.74" y1="465.63" x2="268.63" y2="465.63" xlink:href="#Degradado_sin_nombre_1372"/>
    <linearGradient id="Degradado_sin_nombre_1372-3" data-name="Degradado sin nombre 1372" x1="268" y1="462.81" x2="274.89" y2="462.81" xlink:href="#Degradado_sin_nombre_1372"/>
    <linearGradient id="Degradado_sin_nombre_1372-4" data-name="Degradado sin nombre 1372" x1="241.37" y1="632.56" x2="263.95" y2="632.56" xlink:href="#Degradado_sin_nombre_1372"/>
    <linearGradient id="Degradado_sin_nombre_1372-5" data-name="Degradado sin nombre 1372" y1="537.04" x2="275.38" y2="537.04" xlink:href="#Degradado_sin_nombre_1372"/>
    <linearGradient id="Degradado_sin_nombre_13" data-name="Degradado sin nombre 13" x1="237.4" y1="401.8" x2="279.92" y2="401.8" gradientUnits="userSpaceOnUse">
      <stop offset="0" stop-color="#3279b1"/>
      <stop offset=".51" stop-color="#153e67"/>
      <stop offset=".69" stop-color="#1e517f"/>
      <stop offset=".99" stop-color="#3279b1"/>
    </linearGradient>
    <linearGradient id="Degradado_sin_nombre_1372-6" data-name="Degradado sin nombre 1372" x1="273.47" y1="402.09" x2="275.33" y2="402.09" xlink:href="#Degradado_sin_nombre_1372"/>
    <linearGradient id="Degradado_sin_nombre_1389" data-name="Degradado sin nombre 1389" x1="255.93" y1="371.55" x2="272.25" y2="371.55" gradientUnits="userSpaceOnUse">
      <stop offset="0" stop-color="#3279b1"/>
      <stop offset=".51" stop-color="#00a2e5"/>
      <stop offset=".76" stop-color="#178ecc"/>
      <stop offset=".99" stop-color="#3279b1"/>
    </linearGradient>
  </defs>
  <rect class="cls-4" x="250.66" y="402.09" width="14.77" height="141.57"/>
  <g>
    <rect class="cls-9" x="260.75" y="499.53" width="14.49" height="33.76"/>
    <rect class="cls-1" x="261.74" y="431.72" width="6.89" height="67.81"/>
    <rect class="cls-2" x="268" y="426.1" width="6.89" height="73.43"/>
  </g>
  <path class="cls-3" d="M263.95,620.76h-22.58v16.97h.15c-.09.29-.15.59-.15.89,0,3.17,5.05,5.74,11.29,5.74s11.29-2.57,11.29-5.74c0-.3-.06-.6-.15-.89h.15v-16.97Z"/>
  <path class="cls-7" d="M275.38,531.89h-14.63v7.41h.1c-.06.13-.1.26-.1.39,0,1.38,3.28,2.51,7.32,2.51s7.32-1.12,7.32-2.51c0-.13-.04-.26-.1-.39h.1v-7.41Z"/>
  <path class="cls-5" d="M279.52,301.82l.17-.17-15.35-15.35.02-.02-.12-.12c-.12-.12-.19-.28-.19-.45v-27.16c0-.35.28-.63.63-.63h0c.35,0,.63-.28.63-.63v-23h-.03c.01-.18.03-.35.03-.53,0-2.08-.86-4.01-2.31-5.58-.3-.33-.17-.86.25-1.01,2.19-.81,3.58-1.85,3.78-3.01h.04v-42.77c0-3.57-6.64-6.47-14.84-6.47s-14.84,2.9-14.84,6.47v42.77h.04c.23,1.34,2.06,2.53,4.88,3.37.43.13.59.66.3,1.01-1.26,1.5-1.99,3.29-1.99,5.22,0,.18.02.35.03.53h-.03v23.63h1.06v339.53c0,.35.28.63.63.63h.63c.35,0,.63.28.63.63v4.22c0,.35-.28.63-.63.63h-.63c-.35,0-.63.28-.63.63v18.78h.01c.11,3.16,5.07,5.7,11.17,5.7s11.06-2.54,11.17-5.7h.01v-18.78c0-.35-.28-.63-.63-.63h-1.06c-.35,0-.63-.28-.63-.63v-4.22c0-.35.28-.63.63-.63h.21c.35,0,.63-.28.63-.63v-16.88c0-.35-.28-.63-.63-.63h-2.74v-.5c1.29.32,2.72.5,4.22.5,5.58,0,10.12-2.43,10.42-5.49h.13v-32.71c0-.35-.28-.63-.63-.63h-13.51c-.35,0-.63-.28-.63-.63v-98.12c0-.35-.28-.63-.63-.63h-3.38v-.19l17.5-14.81c.14-.12.23-.3.22-.49l-.47-47.6c0-.35.28-.64.63-.64h.7c.35,0,.63.28.63.63l.22,45.8c0,.72,1.01.88,1.24.19l3.38-10.39c.02-.06.03-.13.03-.2l-.31-112.2h-.09Z"/>
  <rect class="cls-8" x="273.47" y="378.09" width="1.86" height="48.01"/>
  <polygon class="cls-6" points="272.25 426.6 255.93 441.15 255.93 301.95 272.25 301.95 272.25 426.6"/>
</svg>