<?xml version="1.0" encoding="utf-8"?>
<svg id="ON_OFF" data-name="ON/OFF" xmlns="http://www.w3.org/2000/svg" viewBox="215.385 241.803 43.83 268.82">
  <defs>
    <style>
      .cls-1 {
        fill: url(#Degradado_sin_nombre_56-5);
      }

      .cls-2 {
        fill: url(#Degradado_sin_nombre_1605);
      }

      .cls-3 {
        fill: url(#Degradado_sin_nombre_34);
      }

      .cls-4 {
        fill: url(#Degradado_sin_nombre_1372-2);
      }

      .cls-5 {
        fill: url(#Degradado_sin_nombre_1041);
      }

      .cls-6 {
        fill: url(#Degradado_sin_nombre_1372-3);
      }

      .cls-7 {
        fill: url(#Degradado_sin_nombre_1372-4);
      }

      .cls-8 {
        fill: url(#Degradado_sin_nombre_56-2);
      }

      .cls-9 {
        fill: url(#Degradado_sin_nombre_56);
      }

      .cls-10 {
        fill: url(#Degradado_sin_nombre_56-7);
      }

      .cls-11 {
        fill: url(#Degradado_sin_nombre_56-6);
      }

      .cls-12 {
        fill: url(#Degradado_sin_nombre_1041-2);
      }

      .cls-13 {
        fill: url(#Degradado_sin_nombre_1389);
      }

      .cls-14 {
        fill: url(#Degradado_sin_nombre_56-8);
      }

      .cls-15 {
        fill: url(#Degradado_sin_nombre_1372-5);
      }

      .cls-16 {
        fill: url(#Degradado_sin_nombre_1372);
      }

      .cls-17 {
        fill: url(#Degradado_sin_nombre_56-3);
      }

      .cls-18 {
        fill: url(#Degradado_sin_nombre_56-4);
      }
    </style>
    <linearGradient id="Degradado_sin_nombre_1041" data-name="Degradado sin nombre 1041" x1="221.18" y1="379.05" x2="256.77" y2="379.05" gradientUnits="userSpaceOnUse">
      <stop offset="0.03" stop-color="#858585"/>
      <stop offset="0.3" stop-color="#1f1f1f"/>
      <stop offset="0.33" stop-color="#282828"/>
      <stop offset="0.46" stop-color="#494949"/>
      <stop offset="0.58" stop-color="#636363"/>
      <stop offset="0.71" stop-color="#767676"/>
      <stop offset="0.84" stop-color="#818181"/>
      <stop offset="0.99" stop-color="#858585"/>
    </linearGradient>
    <linearGradient id="Degradado_sin_nombre_1389" data-name="Degradado sin nombre 1389" x1="216.19" y1="359.32" x2="258.71" y2="359.32" gradientUnits="userSpaceOnUse">
      <stop offset="0" stop-color="#3279b1"/>
      <stop offset="0.51" stop-color="#00a2e5"/>
      <stop offset="0.76" stop-color="#178ecc"/>
      <stop offset="0.99" stop-color="#3279b1"/>
    </linearGradient>
    <linearGradient id="Degradado_sin_nombre_1372" data-name="Degradado sin nombre 1372" x1="218.88" y1="282.64" x2="256.47" y2="282.64" gradientUnits="userSpaceOnUse">
      <stop offset="0" stop-color="#3279b1"/>
      <stop offset="0.24" stop-color="#94b9d6"/>
      <stop offset="0.51" stop-color="#fff"/>
      <stop offset="0.58" stop-color="#e6eef5"/>
      <stop offset="0.74" stop-color="#a6c5dd"/>
      <stop offset="0.96" stop-color="#4183b6"/>
      <stop offset="0.99" stop-color="#3279b1"/>
    </linearGradient>
    <linearGradient id="Degradado_sin_nombre_34" data-name="Degradado sin nombre 34" x1="227.41" y1="369.37" x2="248.04" y2="369.37" gradientUnits="userSpaceOnUse">
      <stop offset="0" stop-color="#000"/>
      <stop offset="0.51" stop-color="#515151"/>
      <stop offset="0.74" stop-color="#4f4f4f"/>
      <stop offset="0.82" stop-color="#484848"/>
      <stop offset="0.87" stop-color="#3c3c3c"/>
      <stop offset="0.92" stop-color="#2b2b2b"/>
      <stop offset="0.96" stop-color="#151515"/>
      <stop offset="0.99" stop-color="#000"/>
    </linearGradient>
    <linearGradient id="Degradado_sin_nombre_1605" data-name="Degradado sin nombre 1605" x1="227.51" y1="342.24" x2="247.84" y2="342.24" gradientUnits="userSpaceOnUse">
      <stop offset="0" stop-color="#000"/>
      <stop offset="0.51" stop-color="#242424"/>
      <stop offset="0.78" stop-color="#222"/>
      <stop offset="0.87" stop-color="#1b1b1b"/>
      <stop offset="0.94" stop-color="#0f0f0f"/>
      <stop offset="0.99" stop-color="#000"/>
    </linearGradient>
    <linearGradient id="Degradado_sin_nombre_56" data-name="Degradado sin nombre 56" x1="225.98" y1="378.77" x2="249.09" y2="378.77" gradientUnits="userSpaceOnUse">
      <stop offset="0" stop-color="#000"/>
      <stop offset="0.51" stop-color="#0d0d0d"/>
      <stop offset="0.84" stop-color="#0b0b0b"/>
      <stop offset="0.95" stop-color="#040404"/>
      <stop offset="0.99" stop-color="#000"/>
    </linearGradient>
    <linearGradient id="Degradado_sin_nombre_56-2" data-name="Degradado sin nombre 56" x1="225.92" y1="367.15" x2="249.1" y2="367.15" href="#Degradado_sin_nombre_56"/>
    <linearGradient id="Degradado_sin_nombre_56-3" data-name="Degradado sin nombre 56" x1="225.97" y1="390.4" x2="249.09" y2="390.4" href="#Degradado_sin_nombre_56"/>
    <linearGradient id="Degradado_sin_nombre_56-4" data-name="Degradado sin nombre 56" x1="225.96" y1="355.5" x2="249.09" y2="355.5" href="#Degradado_sin_nombre_56"/>
    <linearGradient id="Degradado_sin_nombre_56-5" data-name="Degradado sin nombre 56" x1="225.97" y1="343.92" x2="249.1" y2="343.92" href="#Degradado_sin_nombre_56"/>
    <linearGradient id="Degradado_sin_nombre_56-6" data-name="Degradado sin nombre 56" x1="228.43" y1="335.52" x2="248.04" y2="335.52" href="#Degradado_sin_nombre_56"/>
    <linearGradient id="Degradado_sin_nombre_56-7" data-name="Degradado sin nombre 56" x1="222.88" y1="470.25" x2="250.93" y2="470.25" href="#Degradado_sin_nombre_56"/>
    <linearGradient id="Degradado_sin_nombre_56-8" data-name="Degradado sin nombre 56" x1="225.98" y1="460.44" x2="248.04" y2="460.44" href="#Degradado_sin_nombre_56"/>
    <linearGradient id="Degradado_sin_nombre_1372-2" data-name="Degradado sin nombre 1372" x1="222.88" y1="490.94" x2="251.2" y2="490.94" href="#Degradado_sin_nombre_1372"/>
    <linearGradient id="Degradado_sin_nombre_1372-3" data-name="Degradado sin nombre 1372" x1="225.98" y1="469" x2="248.04" y2="469" href="#Degradado_sin_nombre_1372"/>
    <linearGradient id="Degradado_sin_nombre_1372-4" data-name="Degradado sin nombre 1372" x1="229.98" y1="445.83" x2="244.67" y2="445.83" href="#Degradado_sin_nombre_1372"/>
    <linearGradient id="Degradado_sin_nombre_1372-5" data-name="Degradado sin nombre 1372" x1="225.98" y1="414.4" x2="249.34" y2="414.4" href="#Degradado_sin_nombre_1372"/>
    <linearGradient id="Degradado_sin_nombre_1041-2" data-name="Degradado sin nombre 1041" x1="226.51" y1="286.4" x2="256.47" y2="286.4" href="#Degradado_sin_nombre_1041"/>
  </defs>
  <polygon id="FONDO" class="cls-5" points="250.7 473.12 223.39 460.05 221.18 285.57 256.77 284.99 250.7 473.12"/>
  <path id="CONTORNO" class="cls-13" d="M258.1,284.32c.39-.4.6-.82.6-1.25,0-2.92-9.52-5.29-21.26-5.29-2.23,0-4.38.09-6.4.24v-10.01h21.36v-24.86h-30.11v24.86h4.2v10.52c-6.18.93-10.31,2.61-10.31,4.54,0,.24.07.47.19.7h-.19v36.57l5.19,2.95v20.89l7.88,5.29-.31-20.31-3.89-1.68v-3.68c.84-.48,1.44-1.39,1.44-2.51v-33.69c3.2.48,6.94.76,10.95.76,6.91,0,13.04-.82,16.92-2.09v27.03h.69l-4.24,162.2,1.7-1.5,4.4-160.69h-.5s1.68-.01,1.68-.01v-28.98Z"/>
  <g id="Capa_15" data-name="Capa 15">
    <ellipse class="cls-16" cx="237.68" cy="282.64" rx="18.8" ry="2.65"/>
  </g>
  <g id="RESORTE_ABAJO" data-name="RESORTE ABAJO">
    <rect class="cls-3" x="227.41" y="346.54" width="20.63" height="45.67" rx=".93" ry=".93"/>
    <ellipse class="cls-2" cx="237.67" cy="342.24" rx="10.17" ry="3.89"/>
  </g>
  <g id="RESORTE">
    <path class="cls-9" d="M248.4,371.82l.39,1.18c1.48,7.98-2.85,10.07-6.62,11.19s-8.32,1.72-12.06,1.47c-1.55-.1-3.67-.14-4.09-3.18-.15-1.06.14-3.68.9-3.91.06-.02.95.51,1.2.57,1.96.52,4.18.27,6.16.14,3.17-.21,6.61-.68,9.7-1.92,1.71-.69,4.51-1.94,4.43-5.55Z"/>
    <path class="cls-8" d="M248.4,360.18l.39,1.18c2.02,10.23-6.38,11.41-10.55,12.11-2.98.5-6.98.98-9.92.31-1.9-.43-3.1-3.22-1.92-6.08.45-1.08.5-.65,1.06-.41,1.79.77,4.92.59,6.83.47,3.09-.19,10.43-1.26,12.91-4.02.78-.87,1.24-1.95,1.21-3.56Z"/>
    <path class="cls-17" d="M248.4,383.46l.38,1.18c1.49,8.02-2.91,10.08-6.68,11.19s-8.07,1.69-11.73,1.47c-1.97-.12-4.67-.21-4.39-4.67.04-.69.5-2.41.98-2.45.04,0,.56.4.76.48,1.65.62,4.34.48,6.08.39,2.83-.16,6.06-.68,8.83-1.58,1.98-.64,5.8-1.78,5.76-6Z"/>
    <path class="cls-18" d="M248.4,348.54l.39,1.18c1.59,8.43-3.43,10.38-7.28,11.42-2.53.68-5.4,1.11-7.96,1.24-1.46.08-5.08.25-6.3-.68-1.33-1.01-1.75-4.51-.64-6.07.4-.56.45-.17.8-.01,1.66.76,3.62.55,5.33.49,3.85-.14,8.36-.58,12.05-2.36,1.56-.75,3.7-1.98,3.62-5.22Z"/>
    <path class="cls-1" d="M226.55,344.08c.44-.71.62-.15,1.1.04,1.83.72,4.83.52,6.76.37,3.28-.26,7.57-.88,10.69-2.5,1.46-.76,3.35-1.99,3.3-4.97.36.71.62,1.99.67,2.91.4,7.29-4.23,8.68-7.63,9.59-2.56.69-5.24,1.1-7.84,1.23-1.51.07-4.92.26-6.25-.55-1.41-.86-1.87-4.4-.81-6.11Z"/>
    <path class="cls-11" d="M229.93,330.78c1.21-.28,3.09,0,4.35.08,3.11.2,6.34.62,9.38,1.79.93.36,3.83,1.72,4.23,3.18.52,1.87-.33,3.87-1.39,4.54-2.24-1.54-4.71-2.22-7.12-2.69-2.19-.43-4.5-.75-6.7-.79-.88-.01-2.47.39-3.18-.17-1.64-1.29-1.28-5.54.45-5.95Z"/>
  </g>
  <g id="Capa_14" data-name="Capa 14">
    <ellipse class="cls-10" cx="236.9" cy="470.25" rx="14.02" ry="10.97"/>
    <ellipse class="cls-14" cx="237.01" cy="460.44" rx="11.03" ry="4.75"/>
  </g>
  <g id="Capa_13" data-name="Capa 13">
    <path class="cls-4" d="M251.2,471.88h-.51c-1.05,5.35-6.83,9.44-13.82,9.44s-12.77-4.09-13.82-9.44h-.17v26.78h.02c-.01.2-.02.4-.02.6,0,5.93,6.34,10.74,14.16,10.74s14.16-4.81,14.16-10.74c0-.2,0-.4-.02-.6h.02v-26.78Z"/>
    <path class="cls-6" d="M248.04,461.45h-.4c-.82,2.12-5.32,3.74-10.76,3.74s-9.95-1.62-10.76-3.74h-.13v10.6h.02c-.01.08-.02.16-.02.24,0,2.35,4.94,4.25,11.03,4.25s11.03-1.9,11.03-4.25c0-.08,0-.16-.02-.24h.02v-10.6Z"/>
    <path class="cls-7" d="M230.07,431.44v10.86h-.09v12.59h.01c0,.09-.01.19-.01.28,0,2.79,3.29,5.05,7.35,5.05s7.35-2.26,7.35-5.05c0-.09,0-.19-.01-.28h.01v-23.45h-14.6Z"/>
    <path class="cls-15" d="M237.85,397.84c-4.94,0-9.22-.89-11.26-2.19v32.02c-.39.43-.6.88-.6,1.36,0,2.37,5.23,4.29,11.68,4.29s11.68-1.92,11.68-4.29v-33.53c-1.94,1.38-6.35,2.35-11.5,2.35Z"/>
  </g>
  <polygon class="cls-12" points="250.16 285.29 250.16 243.29 237.67 242.12 237.67 242.49 231.02 244.09 231.02 286.4 226.51 286.4 226.51 325.77 231.02 325.77 231.02 330.56 237.53 330.56 244.32 330.32 244.32 330.56 254.36 330.68 256.47 285.6 250.16 285.29"/>
</svg>