<?xml version="1.0" encoding="UTF-8"?>
<svg id="TOE_SLEEVE" data-name="TOE SLEEVE" xmlns="http://www.w3.org/2000/svg" xmlns:xlink="http://www.w3.org/1999/xlink" viewBox="0 0 516 777">
  <defs>
    <style>
      .cls-1 {
        fill: url(#Degradado_sin_nombre_13-2);
      }

      .cls-2 {
        fill: url(#Degradado_sin_nombre_34);
      }

      .cls-3 {
        fill: url(#Degradado_sin_nombre_1389-4);
      }

      .cls-4 {
        fill: url(#Degradado_sin_nombre_1372-2);
      }

      .cls-5 {
        fill: url(#Degradado_sin_nombre_1389-3);
      }

      .cls-6 {
        fill: url(#Degradado_sin_nombre_1372-3);
      }

      .cls-7 {
        fill: url(#Degradado_sin_nombre_1372-4);
      }

      .cls-8 {
        fill: url(#Degradado_sin_nombre_1389-5);
      }

      .cls-9 {
        fill: url(#Degradado_sin_nombre_13);
      }

      .cls-10 {
        fill: url(#Degradado_sin_nombre_1389-2);
      }

      .cls-11 {
        fill: url(#Degradado_sin_nombre_1389);
      }

      .cls-12 {
        fill: url(#Degradado_sin_nombre_68);
      }

      .cls-13 {
        fill: url(#Degradado_sin_nombre_1372-5);
      }

      .cls-14 {
        fill: url(#Degradado_sin_nombre_1372-6);
      }

      .cls-15 {
        fill: url(#Degradado_sin_nombre_1372);
      }
    </style>
    <linearGradient id="Degradado_sin_nombre_13" data-name="Degradado sin nombre 13" x1="246.29" y1="356.44" x2="253.68" y2="356.44" gradientUnits="userSpaceOnUse">
      <stop offset="0" stop-color="#3279b1"/>
      <stop offset=".51" stop-color="#153e67"/>
      <stop offset=".69" stop-color="#1e517f"/>
      <stop offset=".99" stop-color="#3279b1"/>
    </linearGradient>
    <linearGradient id="Degradado_sin_nombre_13-2" data-name="Degradado sin nombre 13" x1="268.25" y1="356.45" x2="262.33" y2="367.41" gradientTransform="translate(10.14 -7.05) rotate(1.6)" xlink:href="#Degradado_sin_nombre_13"/>
    <linearGradient id="Degradado_sin_nombre_68" data-name="Degradado sin nombre 68" x1="277.39" y1="368.96" x2="287.62" y2="368.96" gradientUnits="userSpaceOnUse">
      <stop offset="0" stop-color="#3279b1"/>
      <stop offset=".01" stop-color="#153e67"/>
      <stop offset=".38" stop-color="#1e517f"/>
      <stop offset=".99" stop-color="#3279b1"/>
    </linearGradient>
    <linearGradient id="Degradado_sin_nombre_34" data-name="Degradado sin nombre 34" x1="288.06" y1="410.09" x2="291.5" y2="410.09" gradientTransform="translate(985.51 40.73) rotate(90) scale(1.14 1.7)" gradientUnits="userSpaceOnUse">
      <stop offset="0" stop-color="#000"/>
      <stop offset=".51" stop-color="#515151"/>
      <stop offset=".74" stop-color="#4f4f4f"/>
      <stop offset=".82" stop-color="#484848"/>
      <stop offset=".87" stop-color="#3c3c3c"/>
      <stop offset=".92" stop-color="#2b2b2b"/>
      <stop offset=".96" stop-color="#151515"/>
      <stop offset=".99" stop-color="#000"/>
    </linearGradient>
    <linearGradient id="Degradado_sin_nombre_1389" data-name="Degradado sin nombre 1389" x1="262.13" y1="340.89" x2="264.13" y2="340.89" gradientTransform="translate(-4.33 -34.51) scale(1 1.16)" gradientUnits="userSpaceOnUse">
      <stop offset="0" stop-color="#3279b1"/>
      <stop offset=".51" stop-color="#00a2e5"/>
      <stop offset=".76" stop-color="#178ecc"/>
      <stop offset=".99" stop-color="#3279b1"/>
    </linearGradient>
    <linearGradient id="Degradado_sin_nombre_1389-2" data-name="Degradado sin nombre 1389" x1="262.46" y1="339.33" x2="264.45" y2="339.33" gradientTransform="translate(-3.74 -34.29) scale(1 1.16)" xlink:href="#Degradado_sin_nombre_1389"/>
    <linearGradient id="Degradado_sin_nombre_1389-3" data-name="Degradado sin nombre 1389" x1="259.1" y1="341.17" x2="261.1" y2="341.17" gradientTransform="translate(-16.3 20.08) scale(1.06 1)" xlink:href="#Degradado_sin_nombre_1389"/>
    <linearGradient id="Degradado_sin_nombre_1389-4" data-name="Degradado sin nombre 1389" x1="278.64" y1="342.54" x2="280.63" y2="342.54" gradientTransform="translate(46.11 20.17) scale(.76 1)" xlink:href="#Degradado_sin_nombre_1389"/>
    <linearGradient id="Degradado_sin_nombre_1389-5" data-name="Degradado sin nombre 1389" x1="279.18" y1="336.19" x2="281.17" y2="336.19" gradientTransform="translate(48.26 20.69) scale(.76 1)" xlink:href="#Degradado_sin_nombre_1389"/>
    <linearGradient id="Degradado_sin_nombre_1372" data-name="Degradado sin nombre 1372" x1="260.81" y1="364.57" x2="261.35" y2="364.57" gradientUnits="userSpaceOnUse">
      <stop offset="0" stop-color="#3279b1"/>
      <stop offset=".24" stop-color="#94b9d6"/>
      <stop offset=".51" stop-color="#fff"/>
      <stop offset=".58" stop-color="#e6eef5"/>
      <stop offset=".74" stop-color="#a6c5dd"/>
      <stop offset=".96" stop-color="#4183b6"/>
      <stop offset=".99" stop-color="#3279b1"/>
    </linearGradient>
    <linearGradient id="Degradado_sin_nombre_1372-2" data-name="Degradado sin nombre 1372" x1="263.4" y1="357.94" x2="263.94" y2="357.94" xlink:href="#Degradado_sin_nombre_1372"/>
    <linearGradient id="Degradado_sin_nombre_1372-3" data-name="Degradado sin nombre 1372" x1="260.55" y1="361.67" x2="261.38" y2="361.67" xlink:href="#Degradado_sin_nombre_1372"/>
    <linearGradient id="Degradado_sin_nombre_1372-4" data-name="Degradado sin nombre 1372" x1="261.19" y1="360.23" x2="262.02" y2="360.23" xlink:href="#Degradado_sin_nombre_1372"/>
    <linearGradient id="Degradado_sin_nombre_1372-5" data-name="Degradado sin nombre 1372" x1="262.23" y1="358.86" x2="262.87" y2="358.86" xlink:href="#Degradado_sin_nombre_1372"/>
    <linearGradient id="Degradado_sin_nombre_1372-6" data-name="Degradado sin nombre 1372" x1="260.55" y1="363.23" x2="261.19" y2="363.23" xlink:href="#Degradado_sin_nombre_1372"/>
  </defs>
  <g id="Capa_20" data-name="Capa 20">
    <path class="cls-9" d="M253.24,353.43l-1.99-.83c-.08-.06-.17-.11-.26-.15-1.43-.67-3.32.35-4.22,2.27-.79,1.69-.56,3.51.47,4.39.07.17.2.31.38.38l2.62,1.1c.36.15.78-.02.93-.38l2.45-5.84c.15-.36-.02-.78-.38-.93Z"/>
    <path class="cls-1" d="M281.42,364.34l-25.26-10.22c-.24-.23-.51-.41-.83-.55-1.76-.75-4.03.4-5.08,2.58-1.05,2.18-.47,4.55,1.29,5.3.11.05.22.09.33.12l26.02,10.53,3.53-7.76Z"/>
    <path class="cls-12" d="M286.72,367.01l-4.02-1.45c-.2-.61-.56-1.06-1.05-1.24-1.27-.46-2.98,1.01-3.81,3.28-.84,2.27-.48,4.48.79,4.94.53.19,1.14.05,1.73-.35l3.94,1.42c.71.25,1.49-.11,1.74-.8l1.5-4.07c.26-.7-.11-1.47-.81-1.72Z"/>
  </g>
  <g id="Capa_17" data-name="Capa 17">
    <ellipse class="cls-2" cx="286.53" cy="370.94" rx="3.46" ry="1.96" transform="translate(-168.86 481.9) rotate(-66.01)"/>
  </g>
  <g id="Capa_19" data-name="Capa 19">
    <rect class="cls-11" x="257.8" y="359.01" width="2" height=".9" rx=".45" ry=".45" transform="translate(138.63 -66.86) rotate(20.01)"/>
    <rect class="cls-10" x="258.72" y="357.43" width="2" height=".9" rx=".45" ry=".45" transform="translate(138.15 -67.27) rotate(20.01)"/>
    <rect class="cls-5" x="257.15" y="360.87" width="2.11" height=".78" rx=".39" ry=".39" transform="translate(139.21 -66.55) rotate(20.01)"/>
    <rect class="cls-3" x="257.45" y="362.32" width="1.51" height=".78" rx=".39" ry=".39" transform="translate(139.71 -66.46) rotate(20.01)"/>
    <rect class="cls-8" x="260" y="356.49" width="1.51" height=".78" rx=".39" ry=".39" transform="translate(137.87 -67.69) rotate(20.01)"/>
    <circle class="cls-15" cx="261.08" cy="364.57" r=".27"/>
    <circle class="cls-4" cx="263.67" cy="357.94" r=".27"/>
    <circle class="cls-6" cx="260.96" cy="361.67" r=".41"/>
    <circle class="cls-7" cx="261.6" cy="360.23" r=".41"/>
    <circle class="cls-13" cx="262.55" cy="358.86" r=".32"/>
    <circle class="cls-14" cx="260.87" cy="363.23" r=".32"/>
  </g>
</svg>