<?xml version="1.0" encoding="UTF-8"?>
<svg id="Capa_1" data-name="Capa 1" xmlns="http://www.w3.org/2000/svg" xmlns:xlink="http://www.w3.org/1999/xlink" viewBox="0 0 750 228.86">
  <defs>
    <style>
      .cls-1 {
        fill: #fff;
      }

      .cls-2 {
        fill: url(#Degradado_sin_nombre_61);
      }

      .cls-3 {
        fill: url(#Degradado_sin_nombre_60);
      }
    </style>
    <radialGradient id="Degradado_sin_nombre_61" data-name="Degradado sin nombre 61" cx="177.09" cy="34.83" fx="177.09" fy="34.83" r="213.34" gradientUnits="userSpaceOnUse">
      <stop offset="0" stop-color="#27669a"/>
      <stop offset=".64" stop-color="#133c63"/>
    </radialGradient>
    <radialGradient id="Degradado_sin_nombre_60" data-name="Degradado sin nombre 60" cx="105.02" cy="127.65" fx="105.02" fy="127.65" r="110.93" gradientUnits="userSpaceOnUse">
      <stop offset="0" stop-color="#337eb8"/>
      <stop offset="1" stop-color="#2b6597"/>
    </radialGradient>
  </defs>
  <g>
    <path class="cls-2" d="M114.44,0C73.46,0,37.5,21.52,17.29,53.9c5.92-3.9,12.71-6.13,19.79-6.13,8.3,0,15.48,2.14,22.56,6.79.33.21.65.42.98.65,14.2-12.89,33.07-20.78,53.81-20.78,44.17,0,79.98,35.81,79.98,79.98,0,22.98-9.7,43.72-25.24,58.31,15.3-1.43,37.06-6.31,49.8-11.73,6.34-14.23,9.88-30,9.88-46.58C228.86,51.22,177.63,0,114.44,0ZM143.37,193.38c-1.9-.71-3.81-1.52-5.66-2.41-7.35,2.26-15.18,3.45-23.28,3.45-44.2,0-80.01-35.84-80.01-80.01,0-13.13,3.16-25.51,8.78-36.43-4.17-1.82-8.1-3.48-8.78-3.48-11.04,0-24.59,11.31-32.5,18.96-1.28,6.79-1.93,13.81-1.93,20.95,0,63.19,51.22,114.44,114.44,114.44,33.13,0,62.98-14.08,83.85-36.61-8.01,4.08-17.35,6.01-28.25,6.01-9.17,0-18.16-1.64-26.67-4.88Z"/>
    <path class="cls-3" d="M222.96,150.7c-2.32,7.02-5.33,13.75-8.93,20.12,0,.03-.03.06-.06.09-8.66,12.62-21.31,21.88-43.93,21.88-8.87,0-17.05-1.61-24.73-4.52-20.84-7.89-38.19-25.33-56.85-46.16-25-27.89-34.14-48.46-50.18-52.18-1.73-.39-3.51-.6-5.42-.6C13.16,89.32.3,106.26.3,106.26c.62-8.84,2.23-17.41,4.76-25.6.03-.09.06-.18.09-.27.42-1.58.92-3.13,1.55-4.61,5.15-12.83,16.85-22.53,30.39-22.53,6.73,0,12.86,1.52,19.56,5.89,8.51,5.54,17.98,15.6,30.72,32.8,22.83,30.75,53.72,72.24,86.64,72.24,1.04,0,2.05,0,3.07-.03,19.97-.45,34.97-5.15,45.9-13.45Z"/>
  </g>
  <g>
    <g>
      <path class="cls-1" d="M277.95,42.63h14.11l46.42,59.91v-59.91h14.98v86.65h-12.75l-47.78-61.65v61.65h-14.98V42.63Z"/>
      <path class="cls-1" d="M376.83,86.21v-.25c0-24.26,18.81-44.81,45.43-44.81s45.18,20.18,45.18,44.56v.25c0,24.26-18.82,44.81-45.43,44.81s-45.18-20.18-45.18-44.56ZM451.48,86.21v-.25c0-16.83-12.13-30.7-29.46-30.7s-29.21,13.61-29.21,30.45v.25c0,16.84,12.13,30.7,29.46,30.7s29.21-13.62,29.21-30.45Z"/>
      <path class="cls-1" d="M490.82,42.63h32.31c27.23,0,46.05,18.69,46.05,43.08v.25c0,24.39-18.81,43.32-46.05,43.32h-32.31V42.63ZM506.05,56.5v58.92h17.08c18.2,0,30.08-12.26,30.08-29.21v-.25c0-16.96-11.88-29.46-30.08-29.46h-17.08Z"/>
      <path class="cls-1" d="M617.19,42.01h14.11l38.12,87.27h-16.09l-8.79-20.92h-40.97l-8.91,20.92h-15.6l38.12-87.27ZM638.98,94.87l-14.98-34.66-14.86,34.66h29.83Z"/>
      <path class="cls-1" d="M689.22,42.63h15.23v72.79h45.56v13.86h-60.78V42.63Z"/>
    </g>
    <g>
      <g>
        <path class="cls-1" d="M309.75,154.62h24.12v5.11h-18.4v8.46h16.31v5.16h-16.31v8.69h18.64v5.11h-24.35v-32.53Z"/>
        <path class="cls-1" d="M343.21,154.62h5.3l17.43,22.5v-22.5h5.62v32.53h-4.79l-17.94-23.14v23.14h-5.62v-32.53Z"/>
        <path class="cls-1" d="M382.24,154.62h24.12v5.11h-18.4v8.46h16.31v5.16h-16.31v8.69h18.64v5.11h-24.35v-32.53Z"/>
        <path class="cls-1" d="M415.7,154.62h14.5c4.09,0,7.3,1.21,9.39,3.25,1.72,1.82,2.69,4.18,2.69,7.02v.09c0,5.34-3.21,8.55-7.71,9.85l8.78,12.32h-6.78l-7.99-11.34h-7.16v11.34h-5.72v-32.53ZM429.78,170.75c4.09,0,6.69-2.09,6.69-5.44v-.09c0-3.53-2.46-5.39-6.74-5.39h-8.32v10.92h8.37Z"/>
        <path class="cls-1" d="M450.18,170.98v-.09c0-9.11,6.92-16.82,16.78-16.82,5.62,0,9.15,1.58,12.5,4.41l-3.63,4.32c-2.51-2.14-5.02-3.44-9.11-3.44-5.95,0-10.55,5.2-10.55,11.43v.09c0,6.69,4.42,11.62,11.06,11.62,3.11,0,5.86-.98,7.85-2.46v-6.04h-8.32v-5.02h13.85v13.66c-3.25,2.74-7.81,5.07-13.57,5.07-10.18,0-16.87-7.25-16.87-16.73Z"/>
        <path class="cls-1" d="M498.56,174.32l-12.92-19.71h6.78l9.06,14.36,9.2-14.36h6.55l-12.92,19.57v12.97h-5.76v-12.83Z"/>
        <path class="cls-1" d="M539.4,170.98v-.09c0-9.11,6.92-16.82,16.78-16.82,5.62,0,9.16,1.58,12.5,4.41l-3.63,4.32c-2.51-2.14-5.02-3.44-9.11-3.44-5.95,0-10.55,5.2-10.55,11.43v.09c0,6.69,4.41,11.62,11.06,11.62,3.11,0,5.86-.98,7.85-2.46v-6.04h-8.32v-5.02h13.85v13.66c-3.25,2.74-7.81,5.07-13.57,5.07-10.18,0-16.87-7.25-16.87-16.73Z"/>
        <path class="cls-1" d="M579.6,154.62h14.5c4.09,0,7.3,1.21,9.39,3.25,1.72,1.82,2.69,4.18,2.69,7.02v.09c0,5.34-3.21,8.55-7.71,9.85l8.78,12.32h-6.79l-7.99-11.34h-7.16v11.34h-5.71v-32.53ZM593.68,170.75c4.09,0,6.69-2.09,6.69-5.44v-.09c0-3.53-2.46-5.39-6.74-5.39h-8.32v10.92h8.37Z"/>
        <path class="cls-1" d="M614.08,170.98v-.09c0-9.11,7.07-16.82,17.06-16.82s16.96,7.58,16.96,16.73v.09c0,9.11-7.07,16.82-17.06,16.82s-16.96-7.58-16.96-16.73ZM642.1,170.98v-.09c0-6.32-4.56-11.53-11.06-11.53s-10.96,5.11-10.96,11.43v.09c0,6.32,4.55,11.52,11.06,11.52s10.97-5.11,10.97-11.43Z"/>
        <path class="cls-1" d="M656.83,173.35v-18.73h5.72v18.5c0,6.09,3.07,9.25,8.22,9.25s8.18-3.02,8.18-9.02v-18.73h5.72v18.45c0,9.71-5.48,14.59-13.99,14.59s-13.85-4.88-13.85-14.32Z"/>
        <path class="cls-1" d="M694.84,154.62h12.83c7.62,0,12.36,4.33,12.36,10.88v.09c0,7.25-5.81,11.11-13.01,11.11h-6.46v10.46h-5.72v-32.53ZM707.21,171.54c4.32,0,7.02-2.42,7.02-5.81v-.09c0-3.86-2.74-5.81-7.02-5.81h-6.65v11.71h6.65Z"/>
      </g>
      <rect class="cls-1" x="277.95" y="169.4" width="23.04" height="2.68"/>
      <rect class="cls-1" x="725.97" y="169.4" width="23.04" height="2.68"/>
    </g>
  </g>
</svg>